<?xml version="1.0" standalone="no"?>
<svg title="graph" version="1.1" xmlns="http://www.w3.org/2000/svg" viewBox="0 0 1000 600"><svg xmlns="http://www.w3.org/2000/svg" viewBox="0 0 1000 600"><defs><marker id="arrow" markerUnits="strokeWidth" markerWidth="12" markerHeight="12" viewbox="0 0 12 12" refX="6" refY="6" orient="auto"><path d="M2,2 L10,6 L2,10 L6,6 L2,2" style="fill: #000;"/></marker></defs><g transform="translate(511.7870695899457,73.47793008698086)  scale(1.5343682353698607,1.5343682353698607)"><path class="link" d="M65,195C65,177 136.50000000000003,177 136.50000000000003,159" marker-end="url(#arrow)" style="stroke: rgb(0, 0, 0); fill: none; stroke-width: 1px;"/><path class="link" d="M208,195C208,177 136.50000000000003,177 136.50000000000003,159" marker-end="url(#arrow)" style="stroke: rgb(0, 0, 0); fill: none; stroke-width: 1px;"/><path class="link" d="M-208,265C-208,247 -65,247 -65,229" marker-end="url(#arrow)" style="stroke: rgb(0, 0, 0); fill: none; stroke-width: 1px;"/><path class="link" d="M-65,265C-65,247 -65,247 -65,229" marker-end="url(#arrow)" style="stroke: rgb(0, 0, 0); fill: none; stroke-width: 1px;"/><path class="link" d="M78.00000000000001,265C78.00000000000001,247 -65,247 -65,229" marker-end="url(#arrow)" style="stroke: rgb(0, 0, 0); fill: none; stroke-width: 1px;"/><path class="link" d="M-208,195C-208,177 -136.5,177 -136.5,159" marker-end="url(#arrow)" style="stroke: rgb(0, 0, 0); fill: none; stroke-width: 1px;"/><path class="link" d="M-65,195C-65,177 -136.5,177 -136.5,159" marker-end="url(#arrow)" style="stroke: rgb(0, 0, 0); fill: none; stroke-width: 1px;"/><path class="link" d="M-136.5,125C-136.5,107 0,107 0,89" marker-end="url(#arrow)" style="stroke: rgb(0, 0, 0); fill: none; stroke-width: 1px;"/><path class="link" d="M136.50000000000003,125C136.50000000000003,107 0,107 0,89" marker-end="url(#arrow)" style="stroke: rgb(0, 0, 0); fill: none; stroke-width: 1px;"/><path class="link" d="M0,55C0,37 0,37 0,19" marker-end="url(#arrow)" style="stroke: rgb(0, 0, 0); fill: none; stroke-width: 1px;"/><g/><g class="node" transform="translate(208,210)"><rect width="100" height="30" x="-50" y="-15" style="fill: rgb(255, 255, 255); stroke: rgb(0, 0, 0); stroke-width: 1px; rx: 5;"/><circle r="15" cx="55" cy="-15" style="fill: rgb(255, 255, 255); stroke: rgb(0, 0, 0); stroke-width: 1px;"/><text class="node-score" x="55" y="-15" text-anchor="middle" alignment-baseline="middle" style="font: 12px sans-serif;">H</text><image x="50" y="5" width="20" height="20" href="img/semiconductor-icon.svg"/><text text-anchor="middle" alignment-baseline="middle" class="node-label" style="font: 12px sans-serif; fill-opacity: 1;">Recovery keys</text></g><g class="node" transform="translate(65,210)"><rect width="100" height="30" x="-50" y="-15" style="fill: rgb(255, 255, 255); stroke: rgb(0, 0, 0); stroke-width: 1px; rx: 5;"/><circle r="15" cx="55" cy="-15" style="fill: rgb(255, 255, 255); stroke: rgb(0, 0, 0); stroke-width: 1px;"/><text class="node-score" x="55" y="-15" text-anchor="middle" alignment-baseline="middle" style="font: 12px sans-serif;">M</text><image x="50" y="5" width="20" height="20" href="img/coding-icon.svg"/><text text-anchor="middle" alignment-baseline="middle" class="node-label" style="font: 12px sans-serif; fill-opacity: 1;">Recovery contact</text></g><g class="node" transform="translate(136.50000000000003,140)"><circle r="15" class="operator-node" style="fill: rgb(255, 255, 255); stroke: rgb(0, 0, 0); stroke-width: 1px;"/><circle r="15" cx="20" cy="-10" style="fill: rgb(255, 255, 255); stroke: rgb(0, 0, 0); stroke-width: 1px;"/><text class="node-score" x="20" y="-10" text-anchor="middle" alignment-baseline="middle" style="font: 12px sans-serif;">M</text><text class="node-label" text-anchor="middle" alignment-baseline="middle" style="font: 12px sans-serif; fill-opacity: 1;">|</text></g><g class="node" transform="translate(78.00000000000001,280)"><rect width="100" height="30" x="-50" y="-15" style="fill: rgb(255, 255, 255); stroke: rgb(0, 0, 0); stroke-width: 1px; rx: 5;"/><circle r="15" cx="55" cy="-15" style="fill: rgb(255, 255, 255); stroke: rgb(0, 0, 0); stroke-width: 1px;"/><text class="node-score" x="55" y="-15" text-anchor="middle" alignment-baseline="middle" style="font: 12px sans-serif;">H</text><image x="50" y="5" width="20" height="20" href="img/semiconductor-icon.svg"/><text text-anchor="middle" alignment-baseline="middle" class="node-label" style="font: 12px sans-serif; fill-opacity: 1;">Security key</text></g><g class="node" transform="translate(-65,280)"><rect width="100" height="30" x="-50" y="-15" style="fill: rgb(255, 255, 255); stroke: rgb(0, 0, 0); stroke-width: 1px; rx: 5;"/><circle r="15" cx="55" cy="-15" style="fill: rgb(255, 255, 255); stroke: rgb(0, 0, 0); stroke-width: 1px;"/><text class="node-score" x="55" y="-15" text-anchor="middle" alignment-baseline="middle" style="font: 12px sans-serif;">M</text><image x="50" y="5" width="20" height="20" href="img/coding-icon.svg"/><text text-anchor="middle" alignment-baseline="middle" class="node-label" style="font: 12px sans-serif; fill-opacity: 1;">Trusted device</text></g><g class="node" transform="translate(-208,280)"><rect width="100" height="30" x="-50" y="-15" style="fill: rgb(255, 255, 255); stroke: rgb(0, 0, 0); stroke-width: 1px; rx: 5;"/><circle r="15" cx="55" cy="-15" style="fill: rgb(255, 255, 255); stroke: rgb(0, 0, 0); stroke-width: 1px;"/><text class="node-score" x="55" y="-15" text-anchor="middle" alignment-baseline="middle" style="font: 12px sans-serif;">M</text><image x="50" y="5" width="20" height="20" href="img/coding-icon.svg"/><text text-anchor="middle" alignment-baseline="middle" class="node-label" style="font: 12px sans-serif; fill-opacity: 1;">Trusted phone nr.</text></g><g class="node" transform="translate(-65,210)"><circle r="15" class="operator-node" style="fill: rgb(255, 255, 255); stroke: rgb(0, 0, 0); stroke-width: 1px;"/><circle r="15" cx="20" cy="-10" style="fill: rgb(255, 255, 255); stroke: rgb(0, 0, 0); stroke-width: 1px;"/><text class="node-score" x="20" y="-10" text-anchor="middle" alignment-baseline="middle" style="font: 12px sans-serif;">M</text><text class="node-label" text-anchor="middle" alignment-baseline="middle" style="font: 12px sans-serif; fill-opacity: 1;">|</text></g><g class="node" transform="translate(-208,210)"><rect width="100" height="30" x="-50" y="-15" style="fill: rgb(255, 255, 255); stroke: rgb(0, 0, 0); stroke-width: 1px; rx: 5;"/><circle r="15" cx="55" cy="-15" style="fill: rgb(255, 255, 255); stroke: rgb(0, 0, 0); stroke-width: 1px;"/><text class="node-score" x="55" y="-15" text-anchor="middle" alignment-baseline="middle" style="font: 12px sans-serif;">L</text><image x="50" y="5" width="20" height="20" href="img/innovative-brain-icon.svg"/><text text-anchor="middle" alignment-baseline="middle" class="node-label" style="font: 12px sans-serif; fill-opacity: 1;">Password</text></g><g class="node" transform="translate(-136.5,140)"><circle r="15" class="operator-node" style="fill: rgb(255, 255, 255); stroke: rgb(0, 0, 0); stroke-width: 1px;"/><circle r="15" cx="20" cy="-10" style="fill: rgb(255, 255, 255); stroke: rgb(0, 0, 0); stroke-width: 1px;"/><text class="node-score" x="20" y="-10" text-anchor="middle" alignment-baseline="middle" style="font: 12px sans-serif;">M</text><text class="node-label" text-anchor="middle" alignment-baseline="middle" style="font: 12px sans-serif; fill-opacity: 1;">&amp;</text></g><g class="node" transform="translate(0,70)"><circle r="15" class="operator-node" style="fill: rgb(255, 255, 255); stroke: rgb(0, 0, 0); stroke-width: 1px;"/><circle r="15" cx="20" cy="-10" style="fill: rgb(255, 255, 255); stroke: rgb(0, 0, 0); stroke-width: 1px;"/><text class="node-score" x="20" y="-10" text-anchor="middle" alignment-baseline="middle" style="font: 12px sans-serif;">M</text><text class="node-label" text-anchor="middle" alignment-baseline="middle" style="font: 12px sans-serif; fill-opacity: 1;">|</text></g><g class="node" transform="translate(0,0)"><rect width="100" height="30" x="-50" y="-15" style="fill: rgb(255, 255, 255); stroke: rgb(0, 0, 0); stroke-width: 1px;"/><circle r="15" cx="55" cy="-15" style="fill: rgb(255, 255, 255); stroke: rgb(0, 0, 0); stroke-width: 1px;"/><text class="node-score" x="55" y="-15" text-anchor="middle" alignment-baseline="middle" style="font: 12px sans-serif;">M</text><text text-anchor="middle" alignment-baseline="middle" class="node-label" style="font: 12px sans-serif; fill-opacity: 1;">Apple</text></g><g class="devices"/></g></svg></svg>