<?xml version="1.0" standalone="no"?>
<svg title="graph" version="1.1" xmlns="http://www.w3.org/2000/svg" viewBox="0 0 1000 600"><svg xmlns="http://www.w3.org/2000/svg" viewBox="0 0 1000 600"><defs><marker id="arrow" markerUnits="strokeWidth" markerWidth="12" markerHeight="12" viewbox="0 0 12 12" refX="6" refY="6" orient="auto"><path d="M2,2 L10,6 L2,10 L6,6 L2,2" style="fill: #000;"/></marker></defs><g transform="translate(571.5,60.17857142857142)  scale(1.3392857142857142,1.3392857142857142)"><path class="link" d="M71.50000000000003,195C71.50000000000003,177 143,177 143,159" marker-end="url(#arrow)" style="stroke: rgb(0, 0, 0); fill: none; stroke-width: 1px;"/><path class="link" d="M214.50000000000006,195C214.50000000000006,177 143,177 143,159" marker-end="url(#arrow)" style="stroke: rgb(0, 0, 0); fill: none; stroke-width: 1px;"/><path class="link" d="M-357.5,265C-357.5,247 -71.49999999999997,247 -71.49999999999997,229" marker-end="url(#arrow)" style="stroke: rgb(0, 0, 0); fill: none; stroke-width: 1px;"/><path class="link" d="M-214.5,265C-214.5,247 -71.49999999999997,247 -71.49999999999997,229" marker-end="url(#arrow)" style="stroke: rgb(0, 0, 0); fill: none; stroke-width: 1px;"/><path class="link" d="M-71.49999999999997,265C-71.49999999999997,247 -71.49999999999997,247 -71.49999999999997,229" marker-end="url(#arrow)" style="stroke: rgb(0, 0, 0); fill: none; stroke-width: 1px;"/><path class="link" d="M71.50000000000003,265C71.50000000000003,247 -71.49999999999997,247 -71.49999999999997,229" marker-end="url(#arrow)" style="stroke: rgb(0, 0, 0); fill: none; stroke-width: 1px;"/><path class="link" d="M214.50000000000006,265C214.50000000000006,247 -71.49999999999997,247 -71.49999999999997,229" marker-end="url(#arrow)" style="stroke: rgb(0, 0, 0); fill: none; stroke-width: 1px;"/><path class="link" d="M-214.5,195C-214.5,177 -142.99999999999997,177 -142.99999999999997,159" marker-end="url(#arrow)" style="stroke: rgb(0, 0, 0); fill: none; stroke-width: 1px;"/><path class="link" d="M-71.49999999999997,195C-71.49999999999997,177 -142.99999999999997,177 -142.99999999999997,159" marker-end="url(#arrow)" style="stroke: rgb(0, 0, 0); fill: none; stroke-width: 1px;"/><path class="link" d="M-142.99999999999997,125C-142.99999999999997,107 0,107 0,89" marker-end="url(#arrow)" style="stroke: rgb(0, 0, 0); fill: none; stroke-width: 1px;"/><path class="link" d="M2.886579864025407e-14,125C2.886579864025407e-14,107 0,107 0,89" marker-end="url(#arrow)" style="stroke: rgb(0, 0, 0); fill: none; stroke-width: 1px;"/><path class="link" d="M143,125C143,107 0,107 0,89" marker-end="url(#arrow)" style="stroke: rgb(0, 0, 0); fill: none; stroke-width: 1px;"/><path class="link" d="M0,55C0,37 0,37 0,19" marker-end="url(#arrow)" style="stroke: rgb(0, 0, 0); fill: none; stroke-width: 1px;"/><g/><g class="node" transform="translate(214.50000000000006,210)"><rect width="100" height="30" x="-50" y="-15" style="fill: rgb(255, 255, 255); stroke: rgb(0, 0, 0); stroke-width: 1px; rx: 5;"/><circle r="15" cx="55" cy="-15" style="fill: rgb(255, 255, 255); stroke: rgb(0, 0, 0); stroke-width: 1px;"/><text class="node-score" x="55" y="-15" text-anchor="middle" alignment-baseline="middle" style="font: 12px sans-serif;">L</text><image x="50" y="5" width="20" height="20" href=""/><text text-anchor="middle" alignment-baseline="middle" class="node-label" style="font: 12px sans-serif; fill-opacity: 1;">Recovery email</text></g><g class="node" transform="translate(71.50000000000003,210)"><rect width="100" height="30" x="-50" y="-15" style="fill: rgb(255, 255, 255); stroke: rgb(0, 0, 0); stroke-width: 1px; rx: 5;"/><circle r="15" cx="55" cy="-15" style="fill: rgb(255, 255, 255); stroke: rgb(0, 0, 0); stroke-width: 1px;"/><text class="node-score" x="55" y="-15" text-anchor="middle" alignment-baseline="middle" style="font: 12px sans-serif;">M</text><image x="50" y="5" width="20" height="20" href="img/coding-icon.svg"/><text text-anchor="middle" alignment-baseline="middle" class="node-label" style="font: 12px sans-serif; fill-opacity: 1;">Recovery phone</text></g><g class="node" transform="translate(143,140)"><circle r="15" class="operator-node" style="fill: rgb(255, 255, 255); stroke: rgb(0, 0, 0); stroke-width: 1px;"/><circle r="15" cx="20" cy="-10" style="fill: rgb(255, 255, 255); stroke: rgb(0, 0, 0); stroke-width: 1px;"/><text class="node-score" x="20" y="-10" text-anchor="middle" alignment-baseline="middle" style="font: 12px sans-serif;">L</text><text class="node-label" text-anchor="middle" alignment-baseline="middle" style="font: 12px sans-serif; fill-opacity: 1;">|</text></g><g class="node" transform="translate(2.886579864025407e-14,140)"><rect width="100" height="30" x="-50" y="-15" style="fill: rgb(255, 255, 255); stroke: rgb(0, 0, 0); stroke-width: 1px; rx: 5;"/><circle r="15" cx="55" cy="-15" style="fill: rgb(255, 255, 255); stroke: rgb(0, 0, 0); stroke-width: 1px;"/><text class="node-score" x="55" y="-15" text-anchor="middle" alignment-baseline="middle" style="font: 12px sans-serif;">H</text><image x="50" y="5" width="20" height="20" href="img/semiconductor-icon.svg"/><text text-anchor="middle" alignment-baseline="middle" class="node-label" style="font: 12px sans-serif; fill-opacity: 1;">Passkeys</text></g><g class="node" transform="translate(214.50000000000006,280)"><rect width="100" height="30" x="-50" y="-15" style="fill: rgb(255, 255, 255); stroke: rgb(0, 0, 0); stroke-width: 1px; rx: 5;"/><circle r="15" cx="55" cy="-15" style="fill: rgb(255, 255, 255); stroke: rgb(0, 0, 0); stroke-width: 1px;"/><text class="node-score" x="55" y="-15" text-anchor="middle" alignment-baseline="middle" style="font: 12px sans-serif;">H</text><image x="50" y="5" width="20" height="20" href="img/semiconductor-icon.svg"/><text text-anchor="middle" alignment-baseline="middle" class="node-label" style="font: 12px sans-serif; fill-opacity: 1;">Security key</text></g><g class="node" transform="translate(71.50000000000003,280)"><rect width="100" height="30" x="-50" y="-15" style="fill: rgb(255, 255, 255); stroke: rgb(0, 0, 0); stroke-width: 1px; rx: 5;"/><circle r="15" cx="55" cy="-15" style="fill: rgb(255, 255, 255); stroke: rgb(0, 0, 0); stroke-width: 1px;"/><text class="node-score" x="55" y="-15" text-anchor="middle" alignment-baseline="middle" style="font: 12px sans-serif;">H</text><image x="50" y="5" width="20" height="20" href="img/semiconductor-icon.svg"/><text text-anchor="middle" alignment-baseline="middle" class="node-label" style="font: 12px sans-serif; fill-opacity: 1;">Backup codes</text></g><g class="node" transform="translate(-71.49999999999997,280)"><rect width="100" height="30" x="-50" y="-15" style="fill: rgb(255, 255, 255); stroke: rgb(0, 0, 0); stroke-width: 1px; rx: 5;"/><circle r="15" cx="55" cy="-15" style="fill: rgb(255, 255, 255); stroke: rgb(0, 0, 0); stroke-width: 1px;"/><text class="node-score" x="55" y="-15" text-anchor="middle" alignment-baseline="middle" style="font: 12px sans-serif;">M</text><image x="50" y="5" width="20" height="20" href="img/coding-icon.svg"/><text text-anchor="middle" alignment-baseline="middle" class="node-label" style="font: 12px sans-serif; fill-opacity: 1;">Voice or SMS</text></g><g class="node" transform="translate(-214.5,280)"><rect width="100" height="30" x="-50" y="-15" style="fill: rgb(255, 255, 255); stroke: rgb(0, 0, 0); stroke-width: 1px; rx: 5;"/><circle r="15" cx="55" cy="-15" style="fill: rgb(255, 255, 255); stroke: rgb(0, 0, 0); stroke-width: 1px;"/><text class="node-score" x="55" y="-15" text-anchor="middle" alignment-baseline="middle" style="font: 12px sans-serif;">M</text><image x="50" y="5" width="20" height="20" href="img/coding-icon.svg"/><text text-anchor="middle" alignment-baseline="middle" class="node-label" style="font: 12px sans-serif; fill-opacity: 1;">Authenticator app</text></g><g class="node" transform="translate(-357.5,280)"><rect width="100" height="30" x="-50" y="-15" style="fill: rgb(255, 255, 255); stroke: rgb(0, 0, 0); stroke-width: 1px; rx: 5;"/><circle r="15" cx="55" cy="-15" style="fill: rgb(255, 255, 255); stroke: rgb(0, 0, 0); stroke-width: 1px;"/><text class="node-score" x="55" y="-15" text-anchor="middle" alignment-baseline="middle" style="font: 12px sans-serif;">M</text><image x="50" y="5" width="20" height="20" href="img/coding-icon.svg"/><text text-anchor="middle" alignment-baseline="middle" class="node-label" style="font: 12px sans-serif; fill-opacity: 1;">Google prompts</text></g><g class="node" transform="translate(-71.49999999999997,210)"><circle r="15" class="operator-node" style="fill: rgb(255, 255, 255); stroke: rgb(0, 0, 0); stroke-width: 1px;"/><circle r="15" cx="20" cy="-10" style="fill: rgb(255, 255, 255); stroke: rgb(0, 0, 0); stroke-width: 1px;"/><text class="node-score" x="20" y="-10" text-anchor="middle" alignment-baseline="middle" style="font: 12px sans-serif;">M</text><text class="node-label" text-anchor="middle" alignment-baseline="middle" style="font: 12px sans-serif; fill-opacity: 1;">|</text></g><g class="node" transform="translate(-214.5,210)"><rect width="100" height="30" x="-50" y="-15" style="fill: rgb(255, 255, 255); stroke: rgb(0, 0, 0); stroke-width: 1px; rx: 5;"/><circle r="15" cx="55" cy="-15" style="fill: rgb(255, 255, 255); stroke: rgb(0, 0, 0); stroke-width: 1px;"/><text class="node-score" x="55" y="-15" text-anchor="middle" alignment-baseline="middle" style="font: 12px sans-serif;">L</text><image x="50" y="5" width="20" height="20" href="img/innovative-brain-icon.svg"/><text text-anchor="middle" alignment-baseline="middle" class="node-label" style="font: 12px sans-serif; fill-opacity: 1;">Password</text></g><g class="node" transform="translate(-142.99999999999997,140)"><circle r="15" class="operator-node" style="fill: rgb(255, 255, 255); stroke: rgb(0, 0, 0); stroke-width: 1px;"/><circle r="15" cx="20" cy="-10" style="fill: rgb(255, 255, 255); stroke: rgb(0, 0, 0); stroke-width: 1px;"/><text class="node-score" x="20" y="-10" text-anchor="middle" alignment-baseline="middle" style="font: 12px sans-serif;">M</text><text class="node-label" text-anchor="middle" alignment-baseline="middle" style="font: 12px sans-serif; fill-opacity: 1;">&amp;</text></g><g class="node" transform="translate(0,70)"><circle r="15" class="operator-node" style="fill: rgb(255, 255, 255); stroke: rgb(0, 0, 0); stroke-width: 1px;"/><circle r="15" cx="20" cy="-10" style="fill: rgb(255, 255, 255); stroke: rgb(0, 0, 0); stroke-width: 1px;"/><text class="node-score" x="20" y="-10" text-anchor="middle" alignment-baseline="middle" style="font: 12px sans-serif;">L</text><text class="node-label" text-anchor="middle" alignment-baseline="middle" style="font: 12px sans-serif; fill-opacity: 1;">|</text></g><g class="node" transform="translate(0,0)" r="10" style="cursor: pointer;"><rect width="100" height="30" x="-50" y="-15" style="fill: rgb(255, 255, 255); stroke: rgb(0, 0, 0); stroke-width: 1px;"/><circle r="15" cx="55" cy="-15" style="fill: rgb(255, 255, 255); stroke: rgb(0, 0, 0); stroke-width: 1px;"/><text class="node-score" x="55" y="-15" text-anchor="middle" alignment-baseline="middle" style="font: 12px sans-serif;">L</text><text text-anchor="middle" alignment-baseline="middle" class="node-label" style="font: 12px sans-serif; fill-opacity: 1;">Google</text></g><g class="devices"/></g></svg></svg>