<?xml version="1.0" standalone="no"?>
<svg title="graph" version="1.1" xmlns="http://www.w3.org/2000/svg" viewBox="0 0 1000 600"><svg xmlns="http://www.w3.org/2000/svg" viewBox="0 0 1000 600"><defs><marker id="arrow" markerUnits="strokeWidth" markerWidth="12" markerHeight="12" viewbox="0 0 12 12" refX="6" refY="6" orient="auto"><path d="M2,2 L10,6 L2,10 L6,6 L2,2" style="fill: #000;"/></marker></defs><g transform="translate(594.6796314438525,73.48993050318674)  scale(1.058119215439025,1.058119215439025)"><path class="link" d="M100.74999999999999,195C100.74999999999999,177 100.74999999999999,177 100.74999999999999,159" marker-end="url(#arrow)" style="stroke: rgb(0, 0, 0); fill: none; stroke-width: 1px;"/><path class="link" d="M-100.75000000000001,265C-100.75000000000001,247 -29.25000000000001,247 -29.25000000000001,229" marker-end="url(#arrow)" style="stroke: rgb(0, 0, 0); fill: none; stroke-width: 1px;"/><path class="link" d="M42.24999999999999,265C42.24999999999999,247 -29.25000000000001,247 -29.25000000000001,229" marker-end="url(#arrow)" style="stroke: rgb(0, 0, 0); fill: none; stroke-width: 1px;"/><path class="link" d="M-172.25000000000003,195C-172.25000000000003,177 -100.75000000000001,177 -100.75000000000001,159" marker-end="url(#arrow)" style="stroke: rgb(0, 0, 0); fill: none; stroke-width: 1px;"/><path class="link" d="M-29.25000000000001,195C-29.25000000000001,177 -100.75000000000001,177 -100.75000000000001,159" marker-end="url(#arrow)" style="stroke: rgb(0, 0, 0); fill: none; stroke-width: 1px;"/><path class="link" d="M-100.75000000000001,125C-100.75000000000001,107 0,107 0,89" marker-end="url(#arrow)" style="stroke: rgb(0, 0, 0); fill: none; stroke-width: 1px;"/><path class="link" d="M100.74999999999999,125C100.74999999999999,107 0,107 0,89" marker-end="url(#arrow)" style="stroke: rgb(0, 0, 0); fill: none; stroke-width: 1px;"/><path class="link" d="M0,55C0,37 0,37 0,19" marker-end="url(#arrow)" style="stroke: rgb(0, 0, 0); fill: none; stroke-width: 1px;"/><g><line class="device-link" stroke="black" stroke-dasharray="4" x2="-167.25000000000003" y2="230" x1="-120" y1="385" marker-end="url(#arrow)"/><line class="device-link" stroke="black" stroke-dasharray="4" x2="-105.75000000000001" y2="300" x1="-120" y1="385" marker-end="url(#arrow)"/><line class="device-link" stroke="black" stroke-dasharray="4" x2="37.24999999999999" y2="300" x1="-120" y1="385" marker-end="url(#arrow)"/><line class="device-link" stroke="black" stroke-dasharray="4" x2="95.74999999999999" y2="230" x1="-120" y1="385" marker-end="url(#arrow)"/></g><g class="node" transform="translate(100.74999999999999,210)" r="10" style="cursor: pointer;"><rect width="100" height="30" x="-50" y="-15" style="fill: rgb(255, 255, 255); stroke: rgb(0, 0, 0); stroke-width: 1px; rx: 5;" class="node-selected"/><image x="50" y="5" width="20" height="20" href="img/coding-icon.svg"/><text text-anchor="middle" alignment-baseline="middle" class="node-label" style="font: 12px sans-serif; fill-opacity: 1;">Rec phone</text></g><g class="node" transform="translate(100.74999999999999,140)" r="10" style="cursor: pointer;"><circle r="15" class="operator-node" style="fill: rgb(255, 255, 255); stroke: rgb(0, 0, 0); stroke-width: 1px;"/><text class="node-label" text-anchor="middle" alignment-baseline="middle" style="font: 12px sans-serif; fill-opacity: 1;">|</text></g><g class="node" transform="translate(42.24999999999999,280)" r="10" style="cursor: pointer;"><rect width="100" height="30" x="-50" y="-15" style="fill: rgb(255, 255, 255); stroke: rgb(0, 0, 0); stroke-width: 1px; rx: 5;" class=""/><image x="50" y="5" width="20" height="20" href="img/coding-icon.svg"/><text text-anchor="middle" alignment-baseline="middle" class="node-label" style="font: 12px sans-serif; fill-opacity: 1;">SMS</text></g><g class="node" transform="translate(-100.75000000000001,280)" r="10" style="cursor: pointer;"><rect width="100" height="30" x="-50" y="-15" style="fill: rgb(255, 255, 255); stroke: rgb(0, 0, 0); stroke-width: 1px; rx: 5;" class=""/><image x="50" y="5" width="20" height="20" href="img/coding-icon.svg"/><text text-anchor="middle" alignment-baseline="middle" class="node-label" style="font: 12px sans-serif; fill-opacity: 1;">Auth app</text></g><g class="node" transform="translate(-29.25000000000001,210)"><circle r="15" class="operator-node" style="fill: rgb(255, 255, 255); stroke: rgb(0, 0, 0); stroke-width: 1px;"/><text class="node-label" text-anchor="middle" alignment-baseline="middle" style="font: 12px sans-serif; fill-opacity: 1;">|</text></g><g class="node" transform="translate(-172.25000000000003,210)" r="10" style="cursor: pointer;"><rect width="100" height="30" x="-50" y="-15" style="fill: rgb(255, 255, 255); stroke: rgb(0, 0, 0); stroke-width: 1px; rx: 5;" class=""/><image x="50" y="5" width="20" height="20" href="img/innovative-brain-icon.svg"/><text text-anchor="middle" alignment-baseline="middle" class="node-label" style="font: 12px sans-serif; fill-opacity: 1;">Passwd</text></g><g class="node" transform="translate(-100.75000000000001,140)"><circle r="15" class="operator-node" style="fill: rgb(255, 255, 255); stroke: rgb(0, 0, 0); stroke-width: 1px;"/><text class="node-label" text-anchor="middle" alignment-baseline="middle" style="font: 12px sans-serif; fill-opacity: 1;">&amp;</text></g><g class="node" transform="translate(0,70)" r="10" style="cursor: pointer;"><circle r="15" class="operator-node" style="fill: rgb(255, 255, 255); stroke: rgb(0, 0, 0); stroke-width: 1px;"/><text class="node-label" text-anchor="middle" alignment-baseline="middle" style="font: 12px sans-serif; fill-opacity: 1;">|</text></g><g class="node" transform="translate(0,0)" r="10" style="cursor: pointer;"><rect width="100" height="30" x="-50" y="-15" style="fill: rgb(255, 255, 255); stroke: rgb(0, 0, 0); stroke-width: 1px;"/><text text-anchor="middle" alignment-baseline="middle" class="node-label" style="font: 12px sans-serif; fill-opacity: 1;">Account 1</text></g><g class="devices"><g transform="translate(-240,400)"><rect fill="white" stroke="black" x="-50" y="-15" width="100" height="30" style="rx: 15;"/><text x="0" y="0" text-anchor="middle" alignment-baseline="middle" style="font: 14px sans-serif;">Mem</text></g><g transform="translate(-120,400)"><rect fill="white" stroke="black" x="-50" y="-15" width="100" height="30" style="rx: 15;"/><text x="0" y="0" text-anchor="middle" alignment-baseline="middle" style="font: 14px sans-serif;">P1</text></g><g transform="translate(0,400)"><rect fill="white" stroke="black" x="-50" y="-15" width="100" height="30" style="rx: 15;"/><text x="0" y="0" text-anchor="middle" alignment-baseline="middle" style="font: 14px sans-serif;">C1</text></g><g transform="translate(120,400)"><rect fill="white" stroke="black" x="-50" y="-15" width="100" height="30" style="rx: 15;"/><text x="0" y="0" text-anchor="middle" alignment-baseline="middle" style="font: 14px sans-serif;">C2</text></g><g transform="translate(240,400)"><rect fill="white" stroke="black" x="-50" y="-15" width="100" height="30" style="rx: 15;"/><text x="0" y="0" text-anchor="middle" alignment-baseline="middle" style="font: 14px sans-serif;">T1</text></g></g></g></svg></svg>