<?xml version="1.0" standalone="no"?>
<svg title="graph" version="1.1" xmlns="http://www.w3.org/2000/svg" viewBox="0 0 1000 600"><svg xmlns="http://www.w3.org/2000/svg" viewBox="0 0 1000 600"><defs><marker id="arrow" markerUnits="strokeWidth" markerWidth="12" markerHeight="12" viewbox="0 0 12 12" refX="6" refY="6" orient="auto"><path d="M2,2 L10,6 L2,10 L6,6 L2,2" style="fill: #000;"/></marker></defs><g transform="translate(500,52.61627906976744)  scale(1.0872093023255813,1.0872093023255813)"><path class="link" d="M65,195C65,177 136.50000000000003,177 136.50000000000003,159" marker-end="url(#arrow)" style="stroke: rgb(0, 0, 0); fill: none; stroke-width: 1px;"/><path class="link" d="M208,195C208,177 136.50000000000003,177 136.50000000000003,159" marker-end="url(#arrow)" style="stroke: rgb(0, 0, 0); fill: none; stroke-width: 1px;"/><path class="link" d="M-136.5,265C-136.5,247 -65,247 -65,229" marker-end="url(#arrow)" style="stroke: rgb(0, 0, 0); fill: none; stroke-width: 1px;"/><path class="link" d="M6.500000000000005,265C6.500000000000005,247 -65,247 -65,229" marker-end="url(#arrow)" style="stroke: rgb(0, 0, 0); fill: none; stroke-width: 1px;"/><path class="link" d="M-208,195C-208,177 -136.5,177 -136.5,159" marker-end="url(#arrow)" style="stroke: rgb(0, 0, 0); fill: none; stroke-width: 1px;"/><path class="link" d="M-65,195C-65,177 -136.5,177 -136.5,159" marker-end="url(#arrow)" style="stroke: rgb(0, 0, 0); fill: none; stroke-width: 1px;"/><path class="link" d="M-136.5,125C-136.5,107 0,107 0,89" marker-end="url(#arrow)" style="stroke: rgb(0, 0, 0); fill: none; stroke-width: 1px;"/><path class="link" d="M136.50000000000003,125C136.50000000000003,107 0,107 0,89" marker-end="url(#arrow)" style="stroke: rgb(0, 0, 0); fill: none; stroke-width: 1px;"/><path class="link" d="M0,55C0,37 0,37 0,19" marker-end="url(#arrow)" style="stroke: rgb(0, 0, 0); fill: none; stroke-width: 1px;"/><g><line class="device-link" stroke="black" stroke-dasharray="4" x2="-213" y2="230" x1="-240" y1="385" marker-end="url(#arrow)"/><line class="device-link" stroke="black" stroke-dasharray="4" x2="-203" y2="230" x1="120" y1="385" marker-end="url(#arrow)"/><line class="device-link" stroke="black" stroke-dasharray="4" x2="-203" y2="230" x1="240" y1="385" marker-end="url(#arrow)"/><line class="device-link" stroke="black" stroke-dasharray="4" x2="-131.5" y2="300" x1="-120" y1="385" marker-end="url(#arrow)"/><line class="device-link" stroke="black" stroke-dasharray="4" x2="1.5000000000000053" y2="300" x1="-120" y1="385" marker-end="url(#arrow)"/><line class="device-link" stroke="black" stroke-dasharray="4" x2="60" y2="230" x1="-120" y1="385" marker-end="url(#arrow)"/></g><g class="node" transform="translate(208,210)"><rect width="100" height="30" x="-50" y="-15" style="fill: rgb(255, 255, 255); stroke: rgb(0, 0, 0); stroke-width: 1px; rx: 5;"/><image x="50" y="5" width="20" height="20" href=""/><text text-anchor="middle" alignment-baseline="middle" class="node-label" style="font: 12px sans-serif; fill-opacity: 1;">Rec mail</text></g><g class="node" transform="translate(65,210)"><rect width="100" height="30" x="-50" y="-15" style="fill: rgb(255, 255, 255); stroke: rgb(0, 0, 0); stroke-width: 1px; rx: 5;"/><image x="50" y="5" width="20" height="20" href="img/coding-icon.svg"/><text text-anchor="middle" alignment-baseline="middle" class="node-label" style="font: 12px sans-serif; fill-opacity: 1;">Rec phone</text></g><g class="node" transform="translate(136.50000000000003,140)"><circle r="15" class="operator-node" style="fill: rgb(255, 255, 255); stroke: rgb(0, 0, 0); stroke-width: 1px;"/><text class="node-label" text-anchor="middle" alignment-baseline="middle" style="font: 12px sans-serif; fill-opacity: 1;">|</text></g><g class="node" transform="translate(6.500000000000005,280)"><rect width="100" height="30" x="-50" y="-15" style="fill: rgb(255, 255, 255); stroke: rgb(0, 0, 0); stroke-width: 1px; rx: 5;"/><image x="50" y="5" width="20" height="20" href="img/coding-icon.svg"/><text text-anchor="middle" alignment-baseline="middle" class="node-label" style="font: 12px sans-serif; fill-opacity: 1;">SMS</text></g><g class="node" transform="translate(-136.5,280)"><rect width="100" height="30" x="-50" y="-15" style="fill: rgb(255, 255, 255); stroke: rgb(0, 0, 0); stroke-width: 1px; rx: 5;"/><image x="50" y="5" width="20" height="20" href="img/coding-icon.svg"/><text text-anchor="middle" alignment-baseline="middle" class="node-label" style="font: 12px sans-serif; fill-opacity: 1;">Auth app</text></g><g class="node" transform="translate(-65,210)"><circle r="15" class="operator-node" style="fill: rgb(255, 255, 255); stroke: rgb(0, 0, 0); stroke-width: 1px;"/><text class="node-label" text-anchor="middle" alignment-baseline="middle" style="font: 12px sans-serif; fill-opacity: 1;">|</text></g><g class="node" transform="translate(-208,210)"><rect width="100" height="30" x="-50" y="-15" style="fill: rgb(255, 255, 255); stroke: rgb(0, 0, 0); stroke-width: 1px; rx: 5;"/><image x="50" y="5" width="20" height="20" href="img/innovative-brain-icon.svg"/><text text-anchor="middle" alignment-baseline="middle" class="node-label" style="font: 12px sans-serif; fill-opacity: 1;">Passwd</text></g><g class="node" transform="translate(-136.5,140)"><circle r="15" class="operator-node" style="fill: rgb(255, 255, 255); stroke: rgb(0, 0, 0); stroke-width: 1px;"/><text class="node-label" text-anchor="middle" alignment-baseline="middle" style="font: 12px sans-serif; fill-opacity: 1;">&amp;</text></g><g class="node" transform="translate(0,70)"><circle r="15" class="operator-node" style="fill: rgb(255, 255, 255); stroke: rgb(0, 0, 0); stroke-width: 1px;"/><text class="node-label" text-anchor="middle" alignment-baseline="middle" style="font: 12px sans-serif; fill-opacity: 1;">|</text></g><g class="node" transform="translate(0,0)"><rect width="100" height="30" x="-50" y="-15" style="fill: rgb(255, 255, 255); stroke: rgb(0, 0, 0); stroke-width: 1px;"/><text text-anchor="middle" alignment-baseline="middle" class="node-label" style="font: 12px sans-serif; fill-opacity: 1;">Account 2</text></g><g class="devices"><g transform="translate(-240,400)"><rect fill="white" stroke="black" x="-50" y="-15" width="100" height="30" style="rx: 15;"/><text x="0" y="0" text-anchor="middle" alignment-baseline="middle" style="font: 14px sans-serif;">Mem</text></g><g transform="translate(-120,400)"><rect fill="white" stroke="black" x="-50" y="-15" width="100" height="30" style="rx: 15;"/><text x="0" y="0" text-anchor="middle" alignment-baseline="middle" style="font: 14px sans-serif;">P1</text></g><g transform="translate(0,400)"><rect fill="white" stroke="black" x="-50" y="-15" width="100" height="30" style="rx: 15;"/><text x="0" y="0" text-anchor="middle" alignment-baseline="middle" style="font: 14px sans-serif;">P2</text></g><g transform="translate(120,400)"><rect fill="white" stroke="black" x="-50" y="-15" width="100" height="30" style="rx: 15;"/><text x="0" y="0" text-anchor="middle" alignment-baseline="middle" style="font: 14px sans-serif;">C1</text></g><g transform="translate(240,400)"><rect fill="white" stroke="black" x="-50" y="-15" width="100" height="30" style="rx: 15;"/><text x="0" y="0" text-anchor="middle" alignment-baseline="middle" style="font: 14px sans-serif;">T1</text></g></g></g></svg></svg>