<?xml version="1.0" standalone="no"?>
<svg title="graph" version="1.1" xmlns="http://www.w3.org/2000/svg" viewBox="0 0 1000 600"><svg xmlns="http://www.w3.org/2000/svg" viewBox="0 0 1000 600"><defs><marker id="arrow" markerUnits="strokeWidth" markerWidth="12" markerHeight="12" viewbox="0 0 12 12" refX="6" refY="6" orient="auto"><path d="M2,2 L10,6 L2,10 L6,6 L2,2" style="fill: #000;"/></marker></defs><g transform="translate(500,52.61627906976744)  scale(1.0872093023255813,1.0872093023255813)"><path class="link" d="M-71.5,265C-71.5,247 0,247 0,229" marker-end="url(#arrow)" style="stroke: rgb(0, 0, 0); fill: none; stroke-width: 1px;"/><path class="link" d="M71.5,265C71.5,247 0,247 0,229" marker-end="url(#arrow)" style="stroke: rgb(0, 0, 0); fill: none; stroke-width: 1px;"/><path class="link" d="M-143,195C-143,177 -71.5,177 -71.5,159" marker-end="url(#arrow)" style="stroke: rgb(0, 0, 0); fill: none; stroke-width: 1px;"/><path class="link" d="M0,195C0,177 -71.5,177 -71.5,159" marker-end="url(#arrow)" style="stroke: rgb(0, 0, 0); fill: none; stroke-width: 1px;"/><path class="link" d="M-71.5,125C-71.5,107 0,107 0,89" marker-end="url(#arrow)" style="stroke: rgb(0, 0, 0); fill: none; stroke-width: 1px;"/><path class="link" d="M71.5,125C71.5,107 0,107 0,89" marker-end="url(#arrow)" style="stroke: rgb(0, 0, 0); fill: none; stroke-width: 1px;"/><path class="link" d="M0,55C0,37 0,37 0,19" marker-end="url(#arrow)" style="stroke: rgb(0, 0, 0); fill: none; stroke-width: 1px;"/><g><line class="device-link" stroke="black" stroke-dasharray="4" x2="-148" y2="230" x1="-240" y1="385" marker-end="url(#arrow)"/><line class="device-link" stroke="black" stroke-dasharray="4" x2="-76.5" y2="300" x1="-120" y1="385" marker-end="url(#arrow)"/><line class="device-link" stroke="black" stroke-dasharray="4" x2="-66.5" y2="300" x1="240" y1="385" marker-end="url(#arrow)"/><line class="device-link" stroke="black" stroke-dasharray="4" x2="66.5" y2="300" x1="-120" y1="385" marker-end="url(#arrow)"/><line class="device-link" stroke="black" stroke-dasharray="4" x2="66.5" y2="160" x1="-120" y1="385" marker-end="url(#arrow)"/></g><g class="node" transform="translate(71.5,140)" r="10" style="cursor: pointer;"><rect width="100" height="30" x="-50" y="-15" class="node-selected" style="fill: rgb(255, 255, 255); stroke: rgb(0, 0, 0); stroke-width: 1px; rx: 5;"/><image x="50" y="5" width="20" height="20" href="img/coding-icon.svg"/><text text-anchor="middle" alignment-baseline="middle" class="node-label" style="font: 12px sans-serif; fill-opacity: 1;">Rec. phone</text></g><g class="node" transform="translate(71.5,280)"><rect width="100" height="30" x="-50" y="-15" style="fill: rgb(255, 255, 255); stroke: rgb(0, 0, 0); stroke-width: 1px; rx: 5;"/><image x="50" y="5" width="20" height="20" href="img/coding-icon.svg"/><text text-anchor="middle" alignment-baseline="middle" class="node-label" style="font: 12px sans-serif; fill-opacity: 1;">SMS</text></g><g class="node" transform="translate(-71.5,280)" r="10" style="cursor: pointer;"><rect width="100" height="30" x="-50" y="-15" style="fill: rgb(255, 255, 255); stroke: rgb(0, 0, 0); stroke-width: 1px; rx: 5;"/><image x="50" y="5" width="20" height="20" href="img/coding-icon.svg"/><text text-anchor="middle" alignment-baseline="middle" class="node-label" style="font: 12px sans-serif; fill-opacity: 1;">Auth app</text></g><g class="node" transform="translate(0,210)"><circle r="15" class="operator-node" style="fill: rgb(255, 255, 255); stroke: rgb(0, 0, 0); stroke-width: 1px;"/><text class="node-label" text-anchor="middle" alignment-baseline="middle" style="font: 12px sans-serif; fill-opacity: 1;">|</text></g><g class="node" transform="translate(-143,210)"><rect width="100" height="30" x="-50" y="-15" style="fill: rgb(255, 255, 255); stroke: rgb(0, 0, 0); stroke-width: 1px; rx: 5;"/><image x="50" y="5" width="20" height="20" href="img/innovative-brain-icon.svg"/><text text-anchor="middle" alignment-baseline="middle" class="node-label" style="font: 12px sans-serif; fill-opacity: 1;">Passwd</text></g><g class="node" transform="translate(-71.5,140)"><circle r="15" class="operator-node" style="fill: rgb(255, 255, 255); stroke: rgb(0, 0, 0); stroke-width: 1px;"/><text class="node-label" text-anchor="middle" alignment-baseline="middle" style="font: 12px sans-serif; fill-opacity: 1;">&amp;</text></g><g class="node" transform="translate(0,70)"><circle r="15" class="operator-node" style="fill: rgb(255, 255, 255); stroke: rgb(0, 0, 0); stroke-width: 1px;"/><text class="node-label" text-anchor="middle" alignment-baseline="middle" style="font: 12px sans-serif; fill-opacity: 1;">|</text></g><g class="node" transform="translate(0,0)"><rect width="100" height="30" x="-50" y="-15" style="fill: rgb(255, 255, 255); stroke: rgb(0, 0, 0); stroke-width: 1px;"/><text text-anchor="middle" alignment-baseline="middle" class="node-label" style="font: 12px sans-serif; fill-opacity: 1;">Example 1</text></g><g class="devices"><g transform="translate(-240,400)"><rect fill="white" stroke="black" x="-50" y="-15" width="100" height="30" style="rx: 15; cursor: pointer;"/><text x="0" y="0" text-anchor="middle" alignment-baseline="middle" style="font: 14px sans-serif;">Mem</text></g><g transform="translate(-120,400)"><rect fill="white" stroke="black" x="-50" y="-15" width="100" height="30" style="rx: 15;"/><text x="0" y="0" text-anchor="middle" alignment-baseline="middle" style="font: 14px sans-serif;">P1</text></g><g transform="translate(0,400)"><rect fill="white" stroke="black" x="-50" y="-15" width="100" height="30" style="rx: 15;"/><text x="0" y="0" text-anchor="middle" alignment-baseline="middle" style="font: 14px sans-serif;">P2</text></g><g transform="translate(120,400)"><rect fill="white" stroke="black" x="-50" y="-15" width="100" height="30" style="rx: 15;"/><text x="0" y="0" text-anchor="middle" alignment-baseline="middle" style="font: 14px sans-serif;">C1</text></g><g transform="translate(240,400)"><rect fill="white" stroke="black" x="-50" y="-15" width="100" height="30" style="rx: 15;"/><text x="0" y="0" text-anchor="middle" alignment-baseline="middle" style="font: 14px sans-serif;">T1</text></g></g></g></svg></svg>